<svg width="25" height="24" viewBox="0 0 25 24" fill="none" xmlns="http://www.w3.org/2000/svg">
<path d="M16.8667 10C16.8667 10 16.6667 11 13.6667 15C10.7667 18.8 14.9667 21.6 15.4667 22H15.5667C16.1667 21.5 23.7667 16.7 16.8667 10Z" stroke="white" stroke-width="1.5" stroke-miterlimit="10" stroke-linecap="round" stroke-linejoin="round"/>
<path d="M14.4667 7.80001C14.4667 5.50001 13.5667 3.40001 12.6667 2.20001C12.3667 1.90001 11.8667 2.00001 11.7667 2.40001C11.3667 3.90001 10.1667 7.10001 7.26668 10.9C3.56668 15.7 6.96668 20.9 10.4667 21.9C12.3667 22.4 9.96668 20.9 9.66668 17.8C9.36668 13.9 14.4667 11 14.4667 7.80001Z" stroke="white" stroke-width="1.5" stroke-miterlimit="10" stroke-linecap="round" stroke-linejoin="round"/>
</svg>
