<svg width="252" height="120" viewBox="0 0 252 120" fill="none" xmlns="http://www.w3.org/2000/svg">
<path d="M0 76.7577L2.78483 74.6939C5.56965 72.6301 11.1393 68.5025 16.709 62.8439C22.2786 57.1853 27.8483 49.9957 33.4179 48.5863C38.9876 47.1768 44.5572 51.5473 50.1269 60.0953C55.6965 68.6432 61.2662 81.3685 66.8358 85.201C72.4055 89.0336 77.9751 83.9735 83.5448 76.5421C89.1144 69.1106 94.6841 59.3079 100.254 52.5434C105.823 45.779 111.393 42.053 116.963 47.0071C122.532 51.9613 128.102 65.5956 133.672 68.7094C139.241 71.8232 144.811 64.4164 150.381 55.2221C155.95 46.0277 161.52 35.0458 167.09 27.5832C172.659 20.1205 178.229 16.1773 183.799 17.7173C189.368 19.2573 194.938 26.2807 200.507 36.6695C206.077 47.0582 211.647 60.8124 217.216 58.4033C222.786 55.9942 228.356 37.4218 233.925 25.3274C239.495 13.233 245.065 7.61649 247.85 4.80824L250.634 2" stroke="#0891B2" stroke-opacity="0.3"/>
<path d="M2.80391 74.8253L0.00390625 76.8929V120H252.004V2L249.204 4.81332C246.404 7.62664 240.804 13.2533 235.204 25.3696C229.604 37.4859 224.004 56.0918 218.404 58.5053C212.804 60.9187 207.204 47.1397 201.604 36.7322C196.004 26.3246 190.404 19.2885 184.804 17.7457C179.204 16.2029 173.604 20.1533 168.004 27.6294C162.404 35.1055 156.804 46.1073 151.204 55.3183C145.604 64.5293 140.004 71.9494 134.404 68.83C128.804 65.7106 123.204 52.0516 117.604 47.0885C112.004 42.1254 106.404 45.8582 100.804 52.6348C95.2039 59.4115 89.6039 69.2319 84.0039 76.6768C78.4039 84.1217 72.8039 89.191 67.2039 85.3515C61.6039 81.512 56.0039 68.7637 50.4039 60.2003C44.8039 51.6369 39.2039 47.2584 33.6039 48.6705C28.0039 50.0825 22.4039 57.2851 16.8039 62.9539C11.2039 68.6227 5.60391 72.7578 2.80391 74.8253Z" fill="url(#paint0_linear_1_120)" stroke="#0891B2" stroke-opacity="0.3"/>
<defs>
<linearGradient id="paint0_linear_1_120" x1="126.004" y1="2" x2="126.004" y2="120" gradientUnits="userSpaceOnUse">
<stop stop-color="white" stop-opacity="0.2"/>
<stop offset="1" stop-color="white" stop-opacity="0"/>
</linearGradient>
</defs>
</svg>
