<svg width="24" height="24" viewBox="0 0 24 24" fill="none" xmlns="http://www.w3.org/2000/svg">
<path d="M21.93 6.76001L18.56 20.29C18.443 20.7793 18.164 21.2146 17.7681 21.5251C17.3723 21.8356 16.8831 22.003 16.38 22H3.24C1.73 22 0.649999 20.52 1.1 19.07L5.31 5.55001C5.45068 5.09151 5.73418 4.68995 6.11915 4.40392C6.50412 4.11789 6.97041 3.96236 7.45 3.96001H19.75C20.7 3.96001 21.49 4.54001 21.82 5.34001C22.01 5.77001 22.05 6.26001 21.93 6.76001Z" stroke="#475569" stroke-width="1.5" stroke-miterlimit="10"/>
<path d="M16 22H20.78C22.07 22 23.08 20.91 22.99 19.62L22 6M9.68 6.38L10.72 2.06M16.38 6.39L17.32 2.05M7.7 12H15.7M6.7 16H14.7" stroke="#475569" stroke-width="1.5" stroke-miterlimit="10" stroke-linecap="round" stroke-linejoin="round"/>
</svg>
