<svg width="20" height="20" viewBox="0 0 20 20" fill="none" xmlns="http://www.w3.org/2000/svg">
<path d="M3.33984 11.9297H5.24023C6.24642 11.9297 6.93215 12.1949 7.36719 12.6318C7.80204 13.0688 8.06416 13.7566 8.05957 14.7676V16.6699C8.05957 17.6758 7.79584 18.3622 7.35938 18.7988C6.92282 19.2354 6.23635 19.4999 5.23047 19.5H3.33008C2.32395 19.5 1.63769 19.2353 1.20117 18.7979C0.764643 18.3602 0.500027 17.6716 0.5 16.6602V14.7598C0.500041 13.7538 0.76473 13.0683 1.20215 12.6318C1.63981 12.1952 2.32821 11.9297 3.33984 11.9297ZM14.7695 11.9297H16.6699C17.6759 11.9297 18.3622 12.1943 18.7988 12.6309C19.2354 13.0675 19.5 13.7538 19.5 14.7598V16.6602C19.5 17.6662 19.2354 18.3525 18.7988 18.7891C18.3622 19.2256 17.676 19.4902 16.6699 19.4902H14.7695C13.7637 19.4902 13.0772 19.2256 12.6406 18.7891C12.2041 18.3525 11.9405 17.6661 11.9404 16.6602V14.7598C11.9405 13.7538 12.2041 13.0675 12.6406 12.6309C13.0772 12.1943 13.7637 11.9298 14.7695 11.9297ZM3.33984 0.5H5.24023C6.2462 0.500041 6.93203 0.764252 7.36719 1.2002C7.80216 1.63614 8.06418 2.32242 8.05957 3.32812V5.23047C8.05949 6.23635 7.79593 6.92282 7.35938 7.35938C6.92282 7.79593 6.23635 8.05949 5.23047 8.05957H3.33008C2.32415 8.05957 1.63781 7.79584 1.20117 7.35938C0.764613 6.92282 0.500082 6.23635 0.5 5.23047V3.33008C0.5 2.32395 0.764652 1.63769 1.20215 1.20117C1.63982 0.764643 2.32841 0.500027 3.33984 0.5ZM14.7695 0.5H16.6699C17.6761 0.5 18.3622 0.764545 18.7988 1.20117C19.2355 1.6378 19.5 2.32394 19.5 3.33008V5.23047C19.4999 6.23635 19.2354 6.92282 18.7988 7.35938C18.3622 7.79584 17.6758 8.05957 16.6699 8.05957H14.7695C13.7637 8.05949 13.0772 7.79593 12.6406 7.35938C12.2041 6.92282 11.9405 6.23635 11.9404 5.23047V3.33008C11.9404 2.32415 12.2042 1.63781 12.6406 1.20117C13.0772 0.764613 13.7637 0.500082 14.7695 0.5Z" fill="white" stroke="white"/>
</svg>
